<mxfile host="app.diagrams.net" modified="2022-09-21T17:17:06.931Z" agent="5.0 (Windows NT 10.0; Win64; x64) AppleWebKit/537.36 (KHTML, like Gecko) Chrome/105.0.0.0 Safari/537.36" etag="xVR-vGfI1nonNHB3lQVS" version="20.3.3" type="github">
  <diagram id="sttQ9vXUCq9UvJe0Id4P" name="Página-1">
    <mxGraphModel dx="1422" dy="762" grid="1" gridSize="10" guides="1" tooltips="1" connect="1" arrows="1" fold="1" page="1" pageScale="1" pageWidth="827" pageHeight="1169" math="0" shadow="0">
      <root>
        <mxCell id="0" />
        <mxCell id="1" parent="0" />
        <mxCell id="cwpP_aH2PxJBFw5BAHNS-1" value="&lt;font style=&quot;font-size: 20px;&quot;&gt;iniciar&amp;nbsp;&lt;/font&gt;" style="rounded=1;whiteSpace=wrap;html=1;" parent="1" vertex="1">
          <mxGeometry x="340" y="20" width="120" height="60" as="geometry" />
        </mxCell>
        <mxCell id="cwpP_aH2PxJBFw5BAHNS-2" value="" style="endArrow=classic;html=1;rounded=0;fontSize=20;exitX=0.5;exitY=1;exitDx=0;exitDy=0;" parent="1" source="cwpP_aH2PxJBFw5BAHNS-1" edge="1">
          <mxGeometry width="50" height="50" relative="1" as="geometry">
            <mxPoint x="380" y="70" as="sourcePoint" />
            <mxPoint x="400" y="120" as="targetPoint" />
          </mxGeometry>
        </mxCell>
        <mxCell id="cwpP_aH2PxJBFw5BAHNS-18" style="edgeStyle=orthogonalEdgeStyle;rounded=0;orthogonalLoop=1;jettySize=auto;html=1;exitX=0.5;exitY=1;exitDx=0;exitDy=0;fontSize=12;" parent="1" source="cwpP_aH2PxJBFw5BAHNS-3" target="cwpP_aH2PxJBFw5BAHNS-9" edge="1">
          <mxGeometry relative="1" as="geometry" />
        </mxCell>
        <mxCell id="cwpP_aH2PxJBFw5BAHNS-3" value="Leer dinero&amp;nbsp;" style="shape=parallelogram;perimeter=parallelogramPerimeter;whiteSpace=wrap;html=1;fixedSize=1;" parent="1" vertex="1">
          <mxGeometry x="300" y="120" width="200" height="30" as="geometry" />
        </mxCell>
        <mxCell id="cwpP_aH2PxJBFw5BAHNS-6" style="edgeStyle=orthogonalEdgeStyle;rounded=0;orthogonalLoop=1;jettySize=auto;html=1;entryX=0.5;entryY=0;entryDx=0;entryDy=0;fontSize=20;exitX=0.5;exitY=1;exitDx=0;exitDy=0;" parent="1" source="cwpP_aH2PxJBFw5BAHNS-3" target="cwpP_aH2PxJBFw5BAHNS-15" edge="1">
          <mxGeometry relative="1" as="geometry">
            <mxPoint x="390" y="160" as="sourcePoint" />
          </mxGeometry>
        </mxCell>
        <mxCell id="5afcZ3_Ja8RxjOa46S36-2" style="edgeStyle=orthogonalEdgeStyle;rounded=0;orthogonalLoop=1;jettySize=auto;html=1;exitX=0.5;exitY=1;exitDx=0;exitDy=0;entryX=0.437;entryY=0.033;entryDx=0;entryDy=0;entryPerimeter=0;" edge="1" parent="1" source="cwpP_aH2PxJBFw5BAHNS-9" target="5afcZ3_Ja8RxjOa46S36-1">
          <mxGeometry relative="1" as="geometry">
            <Array as="points">
              <mxPoint x="535" y="240" />
              <mxPoint x="477" y="240" />
            </Array>
          </mxGeometry>
        </mxCell>
        <mxCell id="5afcZ3_Ja8RxjOa46S36-4" style="edgeStyle=orthogonalEdgeStyle;rounded=0;orthogonalLoop=1;jettySize=auto;html=1;exitX=0.5;exitY=1;exitDx=0;exitDy=0;entryX=0.5;entryY=0;entryDx=0;entryDy=0;" edge="1" parent="1" source="cwpP_aH2PxJBFw5BAHNS-9" target="5afcZ3_Ja8RxjOa46S36-3">
          <mxGeometry relative="1" as="geometry" />
        </mxCell>
        <mxCell id="cwpP_aH2PxJBFw5BAHNS-9" value="&lt;font style=&quot;font-size: 12px;&quot;&gt;Dinero &amp;gt;= 2&lt;/font&gt;" style="rounded=0;whiteSpace=wrap;html=1;fontSize=20;" parent="1" vertex="1">
          <mxGeometry x="490" y="200" width="90" height="20" as="geometry" />
        </mxCell>
        <mxCell id="cwpP_aH2PxJBFw5BAHNS-13" value="&lt;font style=&quot;font-size: 12px;&quot;&gt;Si&lt;/font&gt;" style="text;html=1;align=center;verticalAlign=middle;resizable=0;points=[];autosize=1;strokeColor=none;fillColor=none;fontSize=20;" parent="1" vertex="1">
          <mxGeometry x="505" y="140" width="30" height="40" as="geometry" />
        </mxCell>
        <mxCell id="cwpP_aH2PxJBFw5BAHNS-14" value="&lt;font style=&quot;font-size: 12px;&quot;&gt;Si no&amp;nbsp;&lt;/font&gt;" style="text;html=1;align=center;verticalAlign=middle;resizable=0;points=[];autosize=1;strokeColor=none;fillColor=none;fontSize=20;" parent="1" vertex="1">
          <mxGeometry x="240" y="140" width="50" height="40" as="geometry" />
        </mxCell>
        <mxCell id="cwpP_aH2PxJBFw5BAHNS-21" style="edgeStyle=orthogonalEdgeStyle;rounded=0;orthogonalLoop=1;jettySize=auto;html=1;exitX=0.5;exitY=1;exitDx=0;exitDy=0;entryX=0.5;entryY=0;entryDx=0;entryDy=0;fontSize=12;" parent="1" source="cwpP_aH2PxJBFw5BAHNS-15" target="cwpP_aH2PxJBFw5BAHNS-19" edge="1">
          <mxGeometry relative="1" as="geometry" />
        </mxCell>
        <mxCell id="cwpP_aH2PxJBFw5BAHNS-15" value="&lt;font style=&quot;font-size: 12px;&quot;&gt;Dinero &amp;lt;=2&lt;/font&gt;" style="rounded=0;whiteSpace=wrap;html=1;fontSize=20;" parent="1" vertex="1">
          <mxGeometry x="200" y="200" width="100" height="20" as="geometry" />
        </mxCell>
        <mxCell id="cwpP_aH2PxJBFw5BAHNS-23" style="edgeStyle=orthogonalEdgeStyle;rounded=0;orthogonalLoop=1;jettySize=auto;html=1;exitX=0.5;exitY=1;exitDx=0;exitDy=0;entryX=0.5;entryY=0;entryDx=0;entryDy=0;fontSize=12;" parent="1" source="cwpP_aH2PxJBFw5BAHNS-19" target="cwpP_aH2PxJBFw5BAHNS-22" edge="1">
          <mxGeometry relative="1" as="geometry" />
        </mxCell>
        <mxCell id="cwpP_aH2PxJBFw5BAHNS-19" value="Escribir (&quot;Dinero insuficiente&quot;)" style="shape=parallelogram;perimeter=parallelogramPerimeter;whiteSpace=wrap;html=1;fixedSize=1;fontSize=12;" parent="1" vertex="1">
          <mxGeometry x="142.5" y="250" width="215" height="30" as="geometry" />
        </mxCell>
        <mxCell id="cwpP_aH2PxJBFw5BAHNS-22" value="&lt;span style=&quot;font-size: 12px;&quot;&gt;Introducir dinero&amp;nbsp;&lt;/span&gt;" style="rounded=0;whiteSpace=wrap;html=1;fontSize=20;" parent="1" vertex="1">
          <mxGeometry x="200" y="310" width="100" height="20" as="geometry" />
        </mxCell>
        <mxCell id="cwpP_aH2PxJBFw5BAHNS-24" value="" style="curved=1;endArrow=classic;html=1;rounded=0;fontSize=12;exitX=0;exitY=0.5;exitDx=0;exitDy=0;" parent="1" source="cwpP_aH2PxJBFw5BAHNS-22" edge="1">
          <mxGeometry width="50" height="50" relative="1" as="geometry">
            <mxPoint x="320" y="280" as="sourcePoint" />
            <mxPoint x="400" y="90" as="targetPoint" />
            <Array as="points">
              <mxPoint x="50" y="270" />
              <mxPoint x="90" y="140" />
              <mxPoint x="230" y="100" />
            </Array>
          </mxGeometry>
        </mxCell>
        <mxCell id="5afcZ3_Ja8RxjOa46S36-1" value="Dar botella&amp;nbsp;" style="shape=parallelogram;perimeter=parallelogramPerimeter;whiteSpace=wrap;html=1;fixedSize=1;fontSize=12;" vertex="1" parent="1">
          <mxGeometry x="420" y="280" width="130" height="30" as="geometry" />
        </mxCell>
        <mxCell id="5afcZ3_Ja8RxjOa46S36-3" value="&lt;span style=&quot;font-size: 12px;&quot;&gt;Devolución = Dinero - 2&lt;/span&gt;" style="rounded=0;whiteSpace=wrap;html=1;fontSize=20;" vertex="1" parent="1">
          <mxGeometry x="610" y="260" width="130" height="60" as="geometry" />
        </mxCell>
      </root>
    </mxGraphModel>
  </diagram>
</mxfile>
